<?xml version="1.0" encoding="UTF-8"?>
<svg id="Layer_1" xmlns="http://www.w3.org/2000/svg" version="1.1" viewBox="0 0 542.88 96.65">
  <!-- Generator: Adobe Illustrator 30.2.1, SVG Export Plug-In . SVG Version: 2.1.1 Build 1)  -->
  <defs>
    <style>
      .st0 {
        fill: #fff;
      }
    </style>
  </defs>
  <g>
    <polygon class="st0" points="474.24 76.14 474.24 88.17 536.15 88.18 536.15 76.14 489.14 76.14 474.24 76.14"/>
    <path class="st0" d="M131.66,51.44c0,16.54-7.12,24.54-19.58,24.54s-19.58-8-19.58-24.54V10.87h-15.77v41.08c0,25.82,15,37.39,35.1,37.39s34.97-11.57,34.97-37.39V10.87h-15.14v40.57Z"/>
    <polygon class="st0" points="213.15 61.23 173.22 10.87 162.41 10.87 162.41 87.18 176.27 87.18 176.27 36.81 216.2 87.18 227.02 87.18 227.02 10.87 213.15 10.87 213.15 61.23"/>
    <path class="st0" d="M328.72,10.87l-15.26,47.95c-.64,1.78-1.53,6.73-1.53,7.12l-1.78-7.12-14.87-47.95h-11.07l-14.76,47.95c-.63,1.78-1.78,6.61-1.91,7.12-.12-.51-1.01-5.47-1.52-7.12l-15.39-47.95h-15.39l26.2,76.31h11.32l15.13-45.65c.51-1.53,1.53-5.47,1.66-5.85.12.76,1.01,4.32,1.52,5.85l15.14,45.65h11.32l26.07-76.31h-14.88Z"/>
    <path class="st0" d="M365.53,10.87l-32.43,76.31h14.91l39.97-14.66,5.55,14.66h16.51l-32.43-76.31h-12.08ZM355.05,71.01l16.33-41.19,12.21,31.81-28.54,9.38Z"/>
    <polygon class="st0" points="453.19 10.87 432.2 44.07 411.22 10.87 394.31 10.87 424.19 56.66 424.19 87.18 439.7 87.18 439.7 56.66 469.59 10.87 453.19 10.87"/>
    <g>
      <polygon class="st0" points="73.39 87.18 73.81 87.18 73.07 86.13 73.39 87.18"/>
      <path class="st0" d="M52.89,59.26c8.52-7.49,13.46-16.69,13.46-25.94,0-12.47-7.84-23.27-26.09-23.27H9.92v77.13h15.68v-13.94c5.68-1.5,10.91-3.56,15.61-6.03l17.31,18.93h18.95l-24.59-26.88ZM25.6,56.46V21.24h12.08c9.77,0,13.24,5.26,13.24,12.21,0,16.66-16.56,22.38-25.32,25.42v-2.41Z"/>
    </g>
  </g>
  <polygon class="st0" points="536.15 10.87 474.65 10.87 474.65 24.38 527.5 13.92 474.65 37.58 474.65 72.38 536.15 10.87"/>
</svg>